<svg width="49" height="47" viewBox="0 0 49 47" fill="none" xmlns="http://www.w3.org/2000/svg">
<path d="M21 13.9259C21 13.2374 21.2053 12.5642 21.5899 11.9917C21.9744 11.4192 22.5211 10.973 23.1606 10.7095C23.8001 10.446 24.5039 10.377 25.1828 10.5113C25.8617 10.6457 26.4854 10.9773 26.9749 11.4641C27.4644 11.951 27.7977 12.5714 27.9327 13.2467C28.0678 13.9221 27.9985 14.6221 27.7336 15.2582C27.4687 15.8944 27.0201 16.4381 26.4445 16.8207C25.8689 17.2032 25.1922 17.4074 24.5 17.4074C23.5717 17.4074 22.6815 17.0406 22.0251 16.3877C21.3687 15.7348 21 14.8493 21 13.9259ZM10.5 13.9259C10.5 10.2325 11.975 6.69043 14.6005 4.07881C17.226 1.46719 20.787 0 24.5 0C28.213 0 31.774 1.46719 34.3995 4.07881C37.025 6.69043 38.5 10.2325 38.5 13.9259C38.5 26.9706 25.9044 34.2795 25.375 34.5863C25.1105 34.7367 24.8112 34.8158 24.5066 34.8158C24.2019 34.8158 23.9026 34.7367 23.6381 34.5863C23.0956 34.2795 10.5 26.9815 10.5 13.9259ZM14 13.9259C14 23.1083 21.84 29.2031 24.5 31.0069C27.1578 29.2053 35 23.1083 35 13.9259C35 11.1559 33.8938 8.4993 31.9246 6.54059C29.9555 4.58188 27.2848 3.48148 24.5 3.48148C21.7152 3.48148 19.0445 4.58188 17.0754 6.54059C15.1062 8.4993 14 11.1559 14 13.9259ZM40.8559 28.6417C40.4252 28.5002 39.9561 28.5305 39.5474 28.7264C39.1388 28.9222 38.8225 29.2682 38.6654 29.6915C38.5082 30.1148 38.5224 30.5822 38.705 30.9952C38.8876 31.4083 39.2243 31.7347 39.6441 31.9056C43.2556 33.2351 45.5 35.015 45.5 36.5556C45.5 39.4626 37.5112 43.5185 24.5 43.5185C11.4888 43.5185 3.5 39.4626 3.5 36.5556C3.5 35.015 5.74438 33.2351 9.35594 31.9078C9.77574 31.7369 10.1124 31.4105 10.295 30.9974C10.4776 30.5844 10.4918 30.1169 10.3346 29.6937C10.1775 29.2704 9.86123 28.9244 9.45258 28.7285C9.04392 28.5327 8.57478 28.5023 8.14406 28.6439C2.89187 30.5696 0 33.3809 0 36.5556C0 43.3401 12.6241 47 24.5 47C36.3759 47 49 43.3401 49 36.5556C49 33.3809 46.1081 30.5696 40.8559 28.6417Z" fill="black"/>
</svg>
