<svg width="16" height="12" viewBox="0 0 16 12" fill="none" xmlns="http://www.w3.org/2000/svg">
<path d="M15.3846 0H0.615385C0.452174 0 0.295649 0.0632142 0.180242 0.175736C0.064835 0.288258 0 0.44087 0 0.6V10.8C0 11.1183 0.12967 11.4235 0.360484 11.6485C0.591298 11.8736 0.904349 12 1.23077 12H14.7692C15.0957 12 15.4087 11.8736 15.6395 11.6485C15.8703 11.4235 16 11.1183 16 10.8V0.6C16 0.44087 15.9352 0.288258 15.8198 0.175736C15.7044 0.0632142 15.5478 0 15.3846 0ZM13.8023 1.2L8 6.38625L2.19769 1.2H13.8023ZM14.7692 10.8H1.23077V1.96425L7.58385 7.6425C7.69738 7.74411 7.84588 7.8005 8 7.8005C8.15412 7.8005 8.30262 7.74411 8.41615 7.6425L14.7692 1.96425V10.8Z" fill="black"/>
</svg>
