<svg width="47" height="47" viewBox="0 0 47 47" fill="none" xmlns="http://www.w3.org/2000/svg">
<path d="M33.8174 16.798C33.9855 16.9659 34.1188 17.1652 34.2098 17.3847C34.3008 17.6041 34.3476 17.8394 34.3476 18.0769C34.3476 18.3145 34.3008 18.5497 34.2098 18.7692C34.1188 18.9886 33.9855 19.188 33.8174 19.3559L21.1636 32.0097C20.9957 32.1778 20.7963 32.3111 20.5769 32.4021C20.3574 32.4931 20.1222 32.5399 19.8846 32.5399C19.6471 32.5399 19.4118 32.4931 19.1924 32.4021C18.9729 32.3111 18.7736 32.1778 18.6057 32.0097L13.1826 26.5866C12.8434 26.2474 12.6528 25.7874 12.6528 25.3077C12.6528 24.828 12.8434 24.3679 13.1826 24.0287C13.5218 23.6895 13.9818 23.499 14.4615 23.499C14.9412 23.499 15.4013 23.6895 15.7405 24.0287L19.8846 28.1751L31.2595 16.798C31.4274 16.6299 31.6268 16.4966 31.8462 16.4056C32.0657 16.3146 32.3009 16.2678 32.5385 16.2678C32.776 16.2678 33.0113 16.3146 33.2307 16.4056C33.4502 16.4966 33.6495 16.6299 33.8174 16.798ZM47 23.5C47 28.1479 45.6217 32.6913 43.0395 36.5559C40.4573 40.4204 36.7871 43.4325 32.4931 45.2112C28.199 46.9898 23.4739 47.4552 18.9154 46.5484C14.3568 45.6417 10.1695 43.4035 6.883 40.117C3.59647 36.8305 1.35831 32.6432 0.451556 28.0846C-0.455196 23.5261 0.0101822 18.801 1.78884 14.5069C3.5675 10.2129 6.57955 6.54268 10.4441 3.96046C14.3087 1.37825 18.8521 0 23.5 0C29.7306 0.00657959 35.7041 2.48458 40.1097 6.89026C44.5154 11.2959 46.9934 17.2694 47 23.5ZM43.3846 23.5C43.3846 19.5672 42.2184 15.7227 40.0335 12.4527C37.8485 9.18269 34.743 6.63403 31.1095 5.12901C27.4761 3.62399 23.4779 3.23021 19.6207 3.99746C15.7635 4.76471 12.2204 6.65854 9.43946 9.43945C6.65855 12.2204 4.76472 15.7635 3.99747 19.6207C3.23022 23.4779 3.624 27.4761 5.12902 31.1095C6.63404 34.7429 9.1827 37.8485 12.4527 40.0334C15.7227 42.2184 19.5672 43.3846 23.5 43.3846C28.7719 43.3786 33.8262 41.2817 37.5539 37.5539C41.2817 33.8261 43.3786 28.7719 43.3846 23.5Z" fill="black"/>
</svg>
