<svg width="17" height="17" viewBox="0 0 17 17" fill="none" xmlns="http://www.w3.org/2000/svg">
<path d="M13.393 10.0525L10.7261 8.71917C10.6473 8.68 10.5596 8.6623 10.4718 8.66786C10.384 8.67342 10.2992 8.70204 10.226 8.75083L8.91924 9.62167C8.25771 9.28298 7.71949 8.7448 7.38077 8.08333L8.25251 6.7775C8.30131 6.70431 8.32994 6.61954 8.3355 6.53175C8.34106 6.44396 8.32336 6.35626 8.28418 6.2775L6.95073 3.61083C6.90927 3.5274 6.84532 3.45722 6.7661 3.40818C6.68688 3.35915 6.59553 3.33323 6.50236 3.33333C5.66243 3.33333 4.85691 3.66696 4.26299 4.26083C3.66907 4.85469 3.33541 5.66015 3.33541 6.5C3.33762 8.40004 4.09345 10.2216 5.4371 11.5652C6.78075 12.9087 8.6025 13.6645 10.5027 13.6667C11.3426 13.6667 12.1482 13.333 12.7421 12.7392C13.336 12.1453 13.6697 11.3399 13.6697 10.5C13.6697 10.4071 13.6438 10.316 13.5949 10.2369C13.5461 10.1579 13.4761 10.094 13.393 10.0525ZM10.5027 12.6667C8.86768 12.6647 7.30017 12.0143 6.14403 10.8583C4.98788 9.70226 4.33749 8.13489 4.3355 6.5C4.33555 5.97708 4.52473 5.47182 4.86814 5.07744C5.21155 4.68306 5.68601 4.42617 6.204 4.35417L7.25909 6.46417L6.39318 7.7625C6.34769 7.83098 6.31978 7.90961 6.31193 7.99145C6.30408 8.07328 6.31653 8.15579 6.34818 8.23167C6.80799 9.3248 7.67767 10.1944 8.77089 10.6542C8.84678 10.6858 8.92929 10.6983 9.01113 10.6904C9.09298 10.6826 9.17162 10.6547 9.2401 10.6092L10.5385 9.74333L12.6487 10.7983C12.5767 11.3163 12.3198 11.7907 11.9254 12.1341C11.531 12.4775 11.0257 12.6666 10.5027 12.6667ZM8.50254 1.87347e-07C7.0289 -0.000309143 5.58049 0.38244 4.29941 1.1107C3.01833 1.83895 1.94858 2.8877 1.19513 4.15405C0.441672 5.4204 0.0303862 6.86085 0.00162011 8.33408C-0.027146 9.80731 0.327596 11.2627 1.03104 12.5575L0.0626236 15.4633C-0.00593531 15.6689 -0.0158848 15.8895 0.0338904 16.1004C0.0836655 16.3113 0.191198 16.5042 0.344436 16.6574C0.497674 16.8106 0.690561 16.9181 0.901478 16.9679C1.1124 17.0177 1.33301 17.0077 1.53859 16.9392L4.44468 15.9708C5.58226 16.5881 6.8458 16.9375 8.13893 16.9924C9.43207 17.0472 10.7207 16.8061 11.9064 16.2874C13.0922 15.7686 14.1439 14.986 14.9813 13.9992C15.8186 13.0123 16.4196 11.8473 16.7383 10.593C17.057 9.33866 17.085 8.02811 16.8203 6.7613C16.5555 5.49448 16.0049 4.30483 15.2106 3.28308C14.4162 2.26133 13.399 1.43444 12.2364 0.865481C11.0739 0.296518 9.79683 0.000500717 8.50254 1.87347e-07ZM8.50254 16C7.18403 16.0003 5.88874 15.6531 4.7472 14.9933C4.67109 14.9496 4.58495 14.9264 4.49718 14.9258C4.44338 14.9261 4.38995 14.9349 4.33884 14.9517L1.22273 15.99C1.19336 15.9998 1.16184 16.0012 1.13171 15.9941C1.10158 15.987 1.07402 15.9716 1.05213 15.9497C1.03024 15.9279 1.01488 15.9003 1.00777 15.8702C1.00066 15.84 1.00208 15.8085 1.01187 15.7792L2.0503 12.6667C2.07277 12.5994 2.08067 12.5281 2.07349 12.4576C2.0663 12.3871 2.04419 12.3188 2.00863 12.2575C1.18127 10.8284 0.848707 9.16625 1.06254 7.52888C1.27637 5.89151 2.02464 4.37047 3.19126 3.20173C4.35788 2.033 5.87763 1.28191 7.51474 1.06499C9.15184 0.848076 10.8148 1.17745 12.2456 2.00203C13.6763 2.8266 14.795 4.10027 15.4279 5.62544C16.0609 7.15061 16.1727 8.84202 15.7462 10.4373C15.3196 12.0325 14.3785 13.4424 13.0688 14.4482C11.759 15.454 10.154 15.9995 8.50254 16Z" fill="white"/>
</svg>
