<svg width="47" height="47" viewBox="0 0 47 47" fill="none" xmlns="http://www.w3.org/2000/svg">
<path d="M47 29.3756V45.0417C47 45.5611 46.7937 46.0592 46.4264 46.4264C46.0592 46.7937 45.5611 47 45.0417 47H1.95833C1.43895 47 0.940842 46.7937 0.573583 46.4264C0.206324 46.0592 0 45.5611 0 45.0417V29.3756C0 28.8562 0.206324 28.3581 0.573583 27.9909C0.940842 27.6236 1.43895 27.4173 1.95833 27.4173C2.47772 27.4173 2.97583 27.6236 3.34308 27.9909C3.71034 28.3581 3.91667 28.8562 3.91667 29.3756V43.0835H43.0833V29.3756C43.0833 28.8562 43.2897 28.3581 43.6569 27.9909C44.0242 27.6236 44.5223 27.4173 45.0417 27.4173C45.5611 27.4173 46.0592 27.6236 46.4264 27.9909C46.7937 28.3581 47 28.8562 47 29.3756ZM15.0939 13.1366L21.5417 6.68658V29.3756C21.5417 29.8949 21.748 30.393 22.1152 30.7603C22.4825 31.1275 22.9806 31.3338 23.5 31.3338C24.0194 31.3338 24.5175 31.1275 24.8848 30.7603C25.252 30.393 25.4583 29.8949 25.4583 29.3756V6.68658L31.9061 13.1366C32.2736 13.5041 32.772 13.7105 33.2917 13.7105C33.8113 13.7105 34.3097 13.5041 34.6772 13.1366C35.0447 12.7692 35.2511 12.2708 35.2511 11.7512C35.2511 11.2315 35.0447 10.7331 34.6772 10.3657L24.8855 0.574334C24.7036 0.392261 24.4877 0.247821 24.2499 0.149272C24.0122 0.0507239 23.7574 0 23.5 0C23.2426 0 22.9878 0.0507239 22.7501 0.149272C22.5123 0.247821 22.2964 0.392261 22.1145 0.574334L12.3228 10.3657C11.9553 10.7331 11.7489 11.2315 11.7489 11.7512C11.7489 12.2708 11.9553 12.7692 12.3228 13.1366C12.6903 13.5041 13.1887 13.7105 13.7083 13.7105C14.228 13.7105 14.7264 13.5041 15.0939 13.1366Z" fill="black"/>
</svg>
