<svg width="98" height="20" viewBox="0 0 98 20" fill="none" xmlns="http://www.w3.org/2000/svg">
<path d="M5.475 1.625L3.65 5.025L2.5 5.35C2.63333 5.1 2.78333 4.9 2.95 4.75C3.11667 4.58333 3.30833 4.5 3.525 4.5C4.00833 4.5 4.44167 4.7 4.825 5.1C5.225 5.48333 5.425 5.98333 5.425 6.6C5.425 7.25 5.2 7.80833 4.75 8.275C4.31667 8.74167 3.775 8.975 3.125 8.975C2.50833 8.975 1.96667 8.75 1.5 8.3C1.05 7.83333 0.825 7.26667 0.825 6.6C0.825 6.33333 0.875 6.025 0.975 5.675C1.09167 5.325 1.3 4.86667 1.6 4.3L3.6 0.599998L5.475 1.625ZM11.1 1.625L9.275 5.025L8.15 5.35C8.26667 5.1 8.40833 4.9 8.575 4.75C8.75833 4.58333 8.95 4.5 9.15 4.5C9.63333 4.5 10.075 4.7 10.475 5.1C10.875 5.48333 11.075 5.98333 11.075 6.6C11.075 7.25 10.85 7.80833 10.4 8.275C9.96667 8.74167 9.425 8.975 8.775 8.975C8.15833 8.975 7.61667 8.75 7.15 8.3C6.7 7.83333 6.475 7.26667 6.475 6.6C6.475 6.33333 6.525 6.025 6.625 5.675C6.725 5.325 6.925 4.86667 7.225 4.3L9.25 0.599998L11.1 1.625ZM19.6826 19.275C18.2326 19.275 16.9826 19.0417 15.9326 18.575C14.8993 18.0917 13.9493 17.3667 13.0826 16.4L15.6326 13.875C16.1993 14.525 16.8243 15.0333 17.5076 15.4C18.2076 15.75 19.016 15.925 19.9326 15.925C20.766 15.925 21.4076 15.775 21.8576 15.475C22.3243 15.175 22.5576 14.7583 22.5576 14.225C22.5576 13.7417 22.4076 13.35 22.1076 13.05C21.8076 12.75 21.4076 12.4917 20.9076 12.275C20.4243 12.0583 19.8826 11.85 19.2826 11.65C18.6993 11.45 18.116 11.225 17.5326 10.975C16.9493 10.7083 16.4076 10.3833 15.9076 10C15.4243 9.6 15.0326 9.10833 14.7326 8.525C14.4326 7.925 14.2826 7.175 14.2826 6.275C14.2826 5.19167 14.541 4.25833 15.0576 3.475C15.591 2.69167 16.3243 2.1 17.2576 1.7C18.191 1.28333 19.266 1.075 20.4826 1.075C21.716 1.075 22.841 1.29167 23.8576 1.725C24.891 2.15833 25.741 2.75 26.4076 3.5L23.8576 6.025C23.3243 5.475 22.7826 5.06667 22.2326 4.8C21.6993 4.53333 21.091 4.4 20.4076 4.4C19.7243 4.4 19.1826 4.53333 18.7826 4.8C18.3826 5.05 18.1826 5.41667 18.1826 5.9C18.1826 6.35 18.3326 6.71667 18.6326 7C18.9326 7.26667 19.3243 7.5 19.8076 7.7C20.3076 7.9 20.8493 8.1 21.4326 8.3C22.0326 8.5 22.6243 8.73333 23.2076 9C23.791 9.26667 24.3243 9.60833 24.8076 10.025C25.3076 10.425 25.7076 10.9417 26.0076 11.575C26.3076 12.1917 26.4576 12.9583 26.4576 13.875C26.4576 15.5583 25.8576 16.8833 24.6576 17.85C23.4576 18.8 21.7993 19.275 19.6826 19.275ZM34.1096 19.25C32.9929 19.25 31.9929 18.975 31.1096 18.425C30.2429 17.875 29.5512 17.125 29.0346 16.175C28.5346 15.225 28.2846 14.1417 28.2846 12.925C28.2846 11.7083 28.5346 10.625 29.0346 9.675C29.5512 8.725 30.2429 7.975 31.1096 7.425C31.9929 6.875 32.9929 6.6 34.1096 6.6C34.9262 6.6 35.6596 6.75833 36.3096 7.075C36.9762 7.39167 37.5179 7.83333 37.9346 8.4C38.3512 8.95 38.5846 9.58333 38.6346 10.3V15.55C38.5846 16.2667 38.3512 16.9083 37.9346 17.475C37.5346 18.025 37.0012 18.4583 36.3346 18.775C35.6679 19.0917 34.9262 19.25 34.1096 19.25ZM34.8846 15.8C35.7012 15.8 36.3596 15.5333 36.8596 15C37.3596 14.45 37.6096 13.7583 37.6096 12.925C37.6096 12.3583 37.4929 11.8583 37.2596 11.425C37.0429 10.9917 36.7262 10.6583 36.3096 10.425C35.9096 10.175 35.4429 10.05 34.9096 10.05C34.3762 10.05 33.9012 10.175 33.4846 10.425C33.0846 10.6583 32.7596 10.9917 32.5096 11.425C32.2762 11.8583 32.1596 12.3583 32.1596 12.925C32.1596 13.475 32.2762 13.9667 32.5096 14.4C32.7429 14.8333 33.0679 15.175 33.4846 15.425C33.9012 15.675 34.3679 15.8 34.8846 15.8ZM37.4596 19V15.725L38.0346 12.775L37.4596 9.825V6.85H41.2096V19H37.4596ZM52.4277 19V12.075C52.4277 11.4417 52.2277 10.9333 51.8277 10.55C51.4444 10.15 50.9527 9.95 50.3527 9.95C49.9361 9.95 49.5694 10.0417 49.2527 10.225C48.9361 10.3917 48.6861 10.6417 48.5027 10.975C48.3194 11.2917 48.2277 11.6583 48.2277 12.075L46.7527 11.35C46.7527 10.4 46.9611 9.56667 47.3777 8.85C47.7944 8.13333 48.3694 7.58333 49.1027 7.2C49.8527 6.8 50.6944 6.6 51.6277 6.6C52.5277 6.6 53.3194 6.81667 54.0027 7.25C54.7027 7.66667 55.2527 8.225 55.6527 8.925C56.0527 9.625 56.2527 10.3917 56.2527 11.225V19H52.4277ZM44.4027 19V6.85H48.2277V19H44.4027ZM67.2344 19V12.075C67.2344 11.4417 67.0344 10.9333 66.6344 10.55C66.251 10.15 65.7594 9.95 65.1594 9.95C64.7427 9.95 64.376 10.0417 64.0594 10.225C63.7427 10.3917 63.4927 10.6417 63.3094 10.975C63.126 11.2917 63.0344 11.6583 63.0344 12.075L61.5594 11.35C61.5594 10.4 61.7677 9.56667 62.1844 8.85C62.601 8.13333 63.176 7.58333 63.9094 7.2C64.6594 6.8 65.501 6.6 66.4344 6.6C67.3344 6.6 68.126 6.81667 68.8094 7.25C69.5094 7.66667 70.0594 8.225 70.4594 8.925C70.8594 9.625 71.0594 10.3917 71.0594 11.225V19H67.2344ZM59.2094 19V6.85H63.0344V19H59.2094ZM79.416 19.275C78.2993 19.275 77.3077 19.05 76.441 18.6C75.591 18.1333 74.9243 17.5 74.441 16.7C73.9577 15.8833 73.716 14.95 73.716 13.9V6.85H77.541V13.85C77.541 14.2667 77.6077 14.625 77.741 14.925C77.891 15.225 78.1077 15.4583 78.391 15.625C78.6743 15.7917 79.016 15.875 79.416 15.875C79.9827 15.875 80.4327 15.7 80.766 15.35C81.0993 14.9833 81.266 14.4833 81.266 13.85V6.85H85.091V13.875C85.091 14.9417 84.8493 15.8833 84.366 16.7C83.8827 17.5 83.216 18.1333 82.366 18.6C81.516 19.05 80.5327 19.275 79.416 19.275ZM93.3426 8.45L95.1676 5.025L96.3176 4.725C96.1842 4.95833 96.0342 5.15833 95.8676 5.325C95.7009 5.49167 95.5092 5.575 95.2926 5.575C94.8259 5.575 94.3926 5.375 93.9926 4.975C93.5926 4.575 93.3926 4.06667 93.3926 3.45C93.3926 2.8 93.6092 2.25 94.0426 1.8C94.4926 1.33333 95.0426 1.1 95.6926 1.1C96.3092 1.1 96.8426 1.33333 97.2926 1.8C97.7592 2.25 97.9926 2.8 97.9926 3.45C97.9926 3.71667 97.9342 4.03333 97.8176 4.4C97.7176 4.75 97.5176 5.2 97.2176 5.75L95.2176 9.45L93.3426 8.45ZM87.7176 8.45L89.5426 5.025L90.6676 4.725C90.5509 4.95833 90.4092 5.15833 90.2426 5.325C90.0759 5.49167 89.8842 5.575 89.6676 5.575C89.1842 5.575 88.7426 5.375 88.3426 4.975C87.9426 4.575 87.7426 4.06667 87.7426 3.45C87.7426 2.8 87.9592 2.25 88.3926 1.8C88.8426 1.33333 89.3926 1.1 90.0426 1.1C90.6592 1.1 91.1926 1.33333 91.6426 1.8C92.1092 2.25 92.3426 2.8 92.3426 3.45C92.3426 3.71667 92.2926 4.03333 92.1926 4.4C92.0926 4.75 91.8926 5.2 91.5926 5.75L89.5676 9.45L87.7176 8.45Z" fill="black" fill-opacity="0.69"/>
</svg>
